<?xml version="1.0" encoding="utf-8"?>
<!-- Generator: Adobe Illustrator 28.0.0, SVG Export Plug-In . SVG Version: 6.00 Build 0)  -->
<svg version="1.1" xmlns="http://www.w3.org/2000/svg" xmlns:xlink="http://www.w3.org/1999/xlink" x="0px" y="0px"
	 viewBox="0 0 2000 2000" style="enable-background:new 0 0 2000 2000;" xml:space="preserve">
<style type="text/css">
	.st0{fill:#F86C23;}
	.st1{fill:#0B2473;}
	.st2{fill:#FE530A;}
	.st3{fill:#092270;}
	.st4{fill:#FF6600;}
</style>
<g id="Calque_1">
	<g>
		<path class="st0" d="M897.59,787.4c5.31,0,10.62,0,15.92,0c0.23,0.56,0.46,1.61,0.69,1.62c6.83,0.09,13.67,0.09,20.5,0
			c0.24,0,0.46-1.05,0.69-1.62c3.32,0,6.63,0,9.95,0c3.73,2.82,8.22,2.82,11.94,0c5.96,0,11.94-0.37,17.87,0.07
			c14.41,1.08,28.45,4.15,42.59,7.24c19.33,4.22,36.35,13.08,53.45,22.12c5.75,3.04,11.9,6.09,16.36,10.62
			c10.02,10.2,22.75,17.55,30.95,29.61c0.79,5.27,2.47,7.52,5.97,7.96c0.66,0.66,1.33,1.33,1.99,1.99c0.66,0.66,1.33,1.33,1.99,1.99
			c0,0.66,0,1.33,0,1.99c0.26,7.57,8.49,11.68,8.44,19.39c6.82,1.06,5.18,7.66,7.62,11.6c2.77,4.47,4.97,9.11,6.63,14.19
			c0.85,2.59,0.37,5.16,1.31,7.39c1.08,2.54,3.79,4.47,4.58,7.04c2.1,6.8,3.56,13.8,5.24,20.73c1.36,5.61,1.1,11.64,2.44,16.97
			c1.4,5.53,1.31,10.81,1.47,16.21c0.18,5.78,2.86,11.1,2.18,17.1c-0.98,8.64,0.57,17.35-1.83,26.1
			c-1.52,5.56-0.21,11.86-0.31,17.83c-0.07,3.79,1.26,8.04-3.02,10.73c-0.24,0.15,0.17,1.34,0.29,2.04
			c0.25,1.55,1.25,4.02,0.65,4.51c-3.85,3.09-0.81,7.47-2.49,11.02c-1.7,3.57-2.89,7.61-3.25,11.54
			c-1.03,11.37-8.72,20.48-10.25,31.61c-4.28,2.98-4.05,8.29-6.34,12.3c-2.45,4.3-4.79,8.66-7.44,12.83
			c-3.85,6.06-7.87,12.02-11.97,17.92c-0.57,0.82-2.69,0.91-2.86,1.63c-0.98,4.28-6.99,6.41-5.04,11.86
			c-2.65,2.65-5.31,5.31-7.96,7.96c-2.49,0.11-4.99-0.59-7.06,1.95c-2.45,3.01-5.56,5.49-8.14,8.41c-0.7,0.79-0.51,2.36-0.72,3.57
			c-2.17,0.3-4.4-0.64-6.43,1.36c-7.45,7.35-17.18,11.21-25.86,16.69c-8.48,5.35-18.32,7.03-27.1,11.57
			c-6.18,3.2-13.41,5.37-20.32,5.84c-5.5,0.37-10.92,1.42-15.96,2.76c-4.16,1.1-8.11,1.42-12.22,1.57
			c-3.64,0.13-7.3-0.01-10.94,0.04c-3.53,0.05-7.06,0.18-10.53,0.28c0,1.7,0,2.69,0,3.69c-1.33,0-2.65,0-3.98,0
			c-1.21-3.86-4.4-1.88-6.55-1.89c-43.08-0.14-86.15-0.1-129.23-0.1c-5.63,0-11.27-0.09-16.9,0.09c-0.88,0.03-1.72,1.24-2.57,1.9
			c-1.99,0-3.98,0-5.97,0c-0.53-0.66-1.01-1.85-1.58-1.9c-2.58-0.21-5.19-0.09-8.37-0.09c0-2.65,0-4.89,0-7.13
			c0-38.81,0.04-77.61-0.06-116.42c-0.01-3.74,0.8-7.49-1.66-11.29c-1.21-1.87,0.3-5.55,0.69-8.39c0.21-1.53,0.97-3.03,0.99-4.54
			c0.09-9.62,0.05-19.24,0.05-28.86c0-9.29,0.39-18.6-0.11-27.86c-0.51-9.35,2.3-18.94-1.83-28.06c-0.2-0.44,0.06-1.4,0.45-1.74
			c3.07-2.74,1.41-6.26,1.42-9.35c0.11-48.76,0.13-97.51,0.01-146.27c-0.01-5.38,1.37-10.92-1.76-16.19
			c-1.02-1.72-0.68-4.7-0.07-6.84c2.44-8.58,2.37-8.53-0.04-18.29c-0.3-1.2-0.42-3.19,0.26-3.77c4.04-3.44,0.15-6.37-0.32-9.47
			c1.57-3.13,4.31-3.21,7.38-3.51c2.84-0.27,6.57,2.52,8.56-1.83c1.33,0,2.65,0,3.98,0c3.73,2.82,8.22,2.82,11.94,0
			c4.64,0,9.29,0,13.93,0c0.23,0.56,0.46,1.61,0.69,1.62c6.83,0.09,13.67,0.09,20.5,0c0.24,0,0.46-1.05,0.69-1.62
			c4.64,0,9.29,0,13.93,0c0.52,0.66,1.04,1.9,1.56,1.91c9.57,0.12,19.14,0.12,28.72,0C896.55,789.3,897.07,788.07,897.59,787.4z
			 M887.64,888.91c-1.23,0-2.46,0-3.57,0c-0.21,1.31-0.4,1.93-0.4,2.55c-0.01,81.34-0.04,162.68,0.07,244.03
			c0,3.32,1.25,6.63,1.95,10.17c7.82,0,15.05,0.02,22.27-0.04c0.52,0,1.04-0.63,1.56-0.96c0-0.99,0-1.98,0-2.98
			c9.98,0.99,20.2-2.03,30.06,1.86c1.08,0.43,2.82-1.18,4.3-1.33c4.39-0.46,8.19-3.06,12.91-2.64c7.98,0.7,15.67-1.45,23.2-3.9
			c6.41-2.08,12.83-4.13,19.09-6.73c6.55-2.73,11.72-8.21,19.04-9.27c0.68-5.81,6.64-6.31,9.83-9.62
			c8.02-8.31,14.67-17.65,20.71-27.33c3.67-5.89,6.45-12.73,7.88-19.52c1.41-6.71,5.68-12.86,4.35-20.14
			c3.7-3.2,1.24-7.44,1.85-11.16c0.61-3.72,2.51-7.05,2.13-11.12c-0.85-9.32-0.05-18.62-1.73-28.08
			c-1.86-10.49-2.79-21.12-6.33-31.28c-7.41-21.2-18.23-40.03-37.27-53c-8.17-5.56-16.6-10.71-26.2-13.56
			c-4.12-1.22-8.13-2.91-12.3-3.89c-4.29-1-8.75-2.11-13.07-1.88c-4.68,0.25-8.72-2.07-13.11-2.11c-21.55-0.16-43.1-0.1-64.65,0.01
			C889.35,887.01,888.49,888.25,887.64,888.91z"/>
		<path class="st0" d="M1431,787.4c2.65,0,5.31,0,7.96,0c0.34,3.3,2.92,1.92,4.5,1.93c20.35,0.09,40.7,0.09,61.05,0.05
			c5.71-0.01,11.59-0.91,16.12,3.95c0.31,0.33,1.27,0.04,1.92,0.04c0,1.99,0,3.98,0,5.97c-0.55,0.22-1.1,0.44-1.65,0.66
			c0.55,0.44,1.1,0.89,1.65,1.33c0,11.28,0,22.56,0,33.84c-0.55,0.22-1.1,0.44-1.65,0.66c0.55,0.45,1.1,0.89,1.65,1.33
			c0,3.32,0,6.63,0,9.95c-0.55,0.22-1.1,0.44-1.65,0.66c0.55,0.45,1.1,0.89,1.65,1.33c0,10.62,0,21.23,0,31.85
			c-2.2-0.05-4.59-0.38-4,3.16c0.15,0.91,0.02,1.87,0.02,2.81c-7.07-0.35-13.72,2.78-20.94,2.13c-7.19-0.64-14.49-0.14-21.74-0.14
			c-6.92,0-13.84,0-20.76,0c-7.25,0-14.5,0-21.75,0c-7.25,0-14.5-0.09-21.75,0.07c-1.59,0.03-4.18-1.39-4.53,1.92
			c-4.35,1.99-1.86,5.77-1.86,8.54c-0.15,107.76-0.13,215.51-0.13,323.27c0,2.32-0.13,4.65,0.09,6.95c0.06,0.58,1.24,1.06,1.9,1.59
			c0,1.33,0,2.65,0,3.98c-2.67,0.66-5.3,1.63-8.01,1.91c-3.23,0.33-6.53,0.08-9.8,0.08c-8.82,0-17.65-0.03-26.47,0.03
			c-1.43,0.01-3.48-0.72-3.49,1.96c-5.31,0-10.61,0-15.92,0c-0.23-0.56-0.46-1.62-0.69-1.62c-6.83-0.09-13.67-0.09-20.5,0
			c-0.24,0-0.46,1.05-0.69,1.62c-1.99,0-3.98,0-5.97,0c-0.5-0.66-1-1.33-1.5-1.99c-0.83,0.66-1.65,1.33-2.48,1.99
			c-4.31,0-8.61,0-12.99,0c-0.19-0.2-0.45-0.42-0.62-0.7c-0.16-0.25-0.31-0.57-0.31-0.86c-0.01-115.92-0.01-231.84-0.01-348.4
			c-38.92,0-77.83,0-117.43,0c0-3.18,0-5.74,0-8.3c0.66-0.52,1.9-1.04,1.91-1.57c0.1-18.19,0.1-36.39,0-54.58
			c0-0.53-1.24-1.05-1.91-1.57c0-1.33,0-2.65,0-3.98c0.55-0.22,1.1-0.44,1.65-0.66c-0.55-0.45-1.1-0.89-1.65-1.33
			c0-7.96,0-15.92,0-23.88c0.99,0,2.79,0.17,2.84-0.03c1.03-4.92,4.86-3.94,8.15-3.94c19.38-0.02,38.77,0.02,58.15-0.07
			c1.58-0.01,4.17,1.37,4.51-1.93c13.27,0,26.54,0,39.81,0c0.22,0.55,0.44,1.1,0.66,1.65c0.44-0.55,0.89-1.1,1.33-1.65
			c4.64,0,9.29,0,13.93,0c0.52,0.66,1.04,1.9,1.57,1.91c20.85,0.1,41.69,0.1,62.54,0c0.53,0,1.05-1.24,1.57-1.91
			c8.62,0,17.25,0,25.87,0c0.5,0.66,1,1.33,1.5,1.99c0.83-0.66,1.65-1.33,2.48-1.99c5.97,0,11.94,0,17.91,0
			C1425.55,790.1,1428.48,790.1,1431,787.4z"/>
		<path class="st1" d="M794.09,739.35c-11.71,0-22.56,0-33.84,0c0-11.5-0.57-22.76,0.19-33.93c0.57-8.34,4.6-15.9,8.52-23.27
			c8.27-15.56,21.23-25.1,37.92-30.2c4.05-1.24,7.95-1.93,12.15-1.92c42.13,0.07,84.26-0.34,126.38,0.2
			c21.01,0.27,41.86-1.83,62.83-2.49c1.6-4.79,2.99-9.85,4.97-14.67c2.33-5.67,6.37-10.9,7.46-16.74c1.13-6.05,5.1-10.5,6.78-16.23
			c1.43-4.87,2.96-10.95,8.62-14.32c1.8-1.07,1.14-5.75,4.83-6.58c0.88-9.68,9.5-12.39,15.86-16.53c8.74-5.68,18.62-8.32,29.42-8.27
			c53.73,0.25,107.47,0.15,161.21,0.05c4.24-0.01,8.66-0.21,11.79,2.66c2.68,2.45,5.6,0.57,8.24,1.9
			c8.92,4.5,16.9,10.15,23.54,17.65c1.65,1.86-0.92,6.52,4.09,6.1c1.41,2.73,2.85,5.45,4.21,8.21c1.22,2.47,2.62,4.91,3.46,7.52
			c0.85,2.64,2.32,4.96,3.15,7.69c2.32,7.59,5.84,14.8,8.89,22.16c2.35,5.66,4.7,11.32,7.35,17.73c2.54,0,5.44,0,8.33,0
			c59.04,0,118.09,0.01,177.13-0.02c4.5,0,8.96-0.21,12.8,2.77c0.71,0.55,1.6,1.04,2.47,1.2c15.96,2.9,23.16,7.98,34.7,21.79
			c5.59,6.69,8.91,14.14,11.81,22.04c0.32,0.86,0.86,1.7,0.95,2.58c0.72,7.02,1.62,14.03,1.95,21.07
			c0.33,7.21,0.07,14.45,0.07,21.89c-11.39,0-22.24,0-33.84,0c0-6.87-0.04-13.74,0.01-20.62c0.06-6.74-1.97-12.99-4.96-18.84
			c-5.36-10.49-14.46-15.91-25.97-15.95c-69.65-0.2-139.3-0.1-209.34-0.1c-6.76-17.32-14.69-34.26-20.68-52.03
			c-1.64-4.86-3.55-9.86-5.95-14.42c-2.43-4.62-2.42-10.65-7.47-13.84c-4.45-10.16-13.38-13.1-23.2-13.15
			c-46.44-0.23-92.88-0.1-139.32-0.1c-4.98,0-9.95,0.07-14.93-0.01c-8.92-0.15-15.07,4.65-19.83,11.45
			c-2.45,3.5-1.59,8.86-6.01,11.42c0.81,4.52-2.74,7.49-4.06,11.26c-3.35,9.55-7.24,18.87-11.28,28.16
			c-3.78,8.7-6.75,17.76-10.55,26.48c-0.86,1.96-1.13,4.31-2.37,5.94c-1.03,1.35-3.01,2.36-4.74,2.72
			c-2.23,0.46-4.62,0.11-6.94,0.11c-65.35,0-130.69,0.16-196.04-0.13c-13.48-0.06-21.14,7.34-27.37,17.68
			c-0.62,1.04-1.51,2.39-1.3,3.38c1.15,5.34-2.41,9.92-2.14,15.12C794.29,728.88,794.09,733.84,794.09,739.35z"/>
		<path class="st1" d="M1661.87,538.61c-20.67-0.98-41.15,2.87-61.86,2.15c-20.54-0.72-41.12-0.16-61.68-0.16
			c-20.89,0-41.78,0-62.68,0c-20.55,0-41.1,0-62.3,0c-1.55,2.4-3.25,5.05-4.98,7.68c-2.4,3.65-4.49,7.58-7.31,10.87
			c-5.15,6.01-7,14.06-12.02,19.85c-8.31,9.59-13.63,20.85-19.68,31.72c-1.11,1.99-5.41,0.99-4.28,5.17
			c0.26,0.96-2.79,2.5-3.68,4.12c-3.94,7.14-14.36,8.7-22.23,2.8c-2.63-1.97-4.73-4.63-7.08-6.98c-3.23-9.82,2.96-16.98,7.46-24.23
			c11.15-17.96,22.62-35.72,34.05-53.5c4.9-7.62,9.81-15.72,16.97-21.96c5.27-4.59,11.25-6.55,17.87-7.39
			c0.65-0.08,1.32-0.01,1.99-0.01c99.82,0,199.64,0,299.46,0.01c4.32,0,8.96-0.77,11.7,3.97c0.42,3.1-1.25,6.58,1.92,9.21
			c0.49,0.4,0.23,1.94,0.04,2.9c-0.88,4.45-6.49,4.41-8.09,8.41c-0.35,0.87-2.67,1.31-4.09,1.32c-14.92,0.09-29.84,0.06-44.77,0.06
			c-2.87,0-5.75,0-9.71,0C1659.29,536.55,1660.58,537.58,1661.87,538.61z"/>
		<path class="st1" d="M612.97,526.67c-2.02-1.57-4.05-3.14-5.7-4.43c-1.55-7.63,1.62-12.85,6.65-17.51c3-2.77,6.28-4.15,10.32-3.95
			c1.98,0.1,3.97,0.02,5.96,0.02c98.07,0,196.14,0.08,294.21-0.15c7.75-0.02,14.35,2.37,20.11,6.62c3.67,2.71,6.12,7.21,8.75,11.16
			c5.69,8.54,10.93,17.39,16.81,25.79c1.71,2.44,2.6,4.88,3.73,7.42c0.73,1.62,4.5,1.97,3.38,5.4c4.7,2.71,6.89,7.44,9.32,11.88
			c2.22,4.04,6.62,6.77,6.79,12.16c0.05,1.48,2.61,2.77,3.77,4.34c3.59,4.86,7.5,9.61,6.04,16.41c-0.34,1.58-0.05,3.3-0.05,4.32
			c-2.66,7.44-10.76,7.1-14.95,11.96c-0.43,0.5-2.07,0.45-2.85,0.06c-5-2.5-10.84-3.95-14.01-9.09
			c-11.94-19.37-24.16-38.53-37.3-57.12c-3.35-4.75-5.7-10.21-8.51-15.34c0-1.23,0-2.46,0-3.42c-3.94-1.52-7.6,0.66-10.95-2.16
			c-1.57-1.32-5.91-1.42-7.54-0.17c-3.72,2.86-7.6,1.82-11.28,1.64c-11-0.52-21.94,0.94-33.1-1.43c-7.53-1.6-15.93,1.3-23.96,1.4
			c-4.38,0.05-8.98,1.62-13.33-1.32c-4.43-3-8.37,2.57-12.87,1.48c-1.51-0.36-3.01-0.76-4.52-1.09c-1.53-0.33-3.07-0.85-4.6-0.86
			c-10.61-0.08-21.22-0.04-31.83-0.04c-10.94,0-21.89,0.26-32.82-0.07c-10.35-0.32-20.67-1.62-31.01-1.83
			c-15.91-0.32-31.83,0.14-47.75-0.15C644.25,528.32,628.49,530.22,612.97,526.67z"/>
		<path class="st1" d="M440.2,413.84c3.27,0.32,6.69-2.17,10.08,0.7c1.01,0.86,3.07,0.63,4.65,0.65c4.64,0.07,9.3,0.25,13.93-0.01
			c25.99-1.46,51.81,2.83,77.78,2.03c19.84,4.14,40.05-0.06,59.83,2.32c17.05,2.05,33.98,0.92,51.59,1.82
			c1.63-2.03,3.48-4.34,4.88-6.07c4.26,0,7.56,0,10.99,0c4.59,6.22,10.78,8.05,18.51,8.09c14.98,0.08,29.92-0.49,44.99,1.39
			c15.02,1.88,30.66-1.15,45.66,0.81c18.72,2.44,37.48-0.51,55.89,1.94c17.39,2.32,34.66,0.74,51.95,1.72
			c2.33,0.13,4.6,1.33,7.66,2.26c-4.6,3.04-8.44,3.9-12.75,3.72c-4.55-0.2-9.53-0.77-13.58,0.76c-4.64,1.76-9,0.7-13.45,1.06
			c-4.61,0.37-9.64-1.03-13.84,0.34c-6.75,2.21-13.56,0.69-20.12,1.89c-14.29,2.61-28.77,0.52-42.93,2.24
			c-8.41,1.02-16.73,1.65-25.09,1.45c-5.72-0.13-11.42,1.34-17.3-1.36c-5.08-2.33-11.13-0.01-17-2.11
			c-6.44-2.3-13.92-1.59-20.93-2.41c-3.08-0.36-6.06-1.52-9.14-1.87c-2.93-0.33-5.94-0.07-9.81-0.07c0,6.24,0.08,12.44-0.03,18.63
			c-0.06,3.21,1.79,4.37,4.47,5.3c7.43,2.6,11.36,8.06,11.48,15.62c0.06,3.91,0.01,7.83,0.01,12.2c-17.03,0-33.55,0.05-50.07-0.04
			c-4.1-0.02-5.51-1.69-5.65-6c-0.08-2.65-0.04-5.31-0.01-7.96c0.08-6.56,3.49-11.22,10.1-13.87c3.49-1.4,5.71-4.25,5.79-7.87
			c0.11-4.97,0.03-9.95,0.03-15.72c-8.23,0.36-16.51-2.19-24.65,1.44c-0.56,0.25-1.25,0.21-1.88,0.26
			c-9.34,0.67-18.68,1.39-28.03,1.97c-4.15,0.25-8.13-0.19-12.17-1.8c-3.73-1.49-8.51,1.69-12.09-2.1c-0.31-0.33-1.28,0-1.94-0.05
			c-7.69-0.65-15.38-1.21-23.05-2.03c-3.41-0.37-6.73-1.46-10.13-1.89c-3.12-0.39-6.49,0.64-9.16-2c-0.34-0.33-1.29,0-1.94-0.05
			c-4.74-0.4-9.37,0.41-14.22-1.7c-4.13-1.8-9.65,1.03-13.97-2.28c-7.23,1.54-13.88-2.48-21.07-2.14c-3.66,0.18-7.39-1.3-11.11-1.81
			c-3.74-0.51-7.87,1.22-11.11-2.02C454.28,420.51,447.57,416.01,440.2,413.84z"/>
		<path class="st1" d="M1655.9,451.04c0-2.32,0-4.64,0-7.7c-6.27,0.35-12.62-2.04-18.75,1.52c-0.5,0.29-1.26,0.15-1.9,0.21
			c-7.68,0.66-15.38,1.22-23.05,2.04c-3.4,0.37-6.73,1.42-10.13,1.9c-3.11,0.44-6.58-0.92-9.12,2.03c-7.71-1-15.62,1.88-23.27-1.47
			c-1.95-0.85-4.48-0.42-6.75-0.51c-15.64-0.67-31.4-0.42-46.88-2.38c-7.75-0.98-15.41-1.05-23.09-1.69
			c-4.38-0.36-8.47-2.39-13.12-2.03c-4.39,0.33-8.81,0.66-13.21-1.65c-2.34-1.23-5.87-0.03-8.84-0.26
			c-7.03-0.54-14.07-1.11-21.05-2.06c-2.01-0.27-3.84-1.87-6.98-3.51c3.38-0.16,5.57-0.28,7.76-0.36c0.99-0.04,1.99-0.01,2.98-0.01
			c21.56,0,43.24,1.47,64.63-0.41c21.35-1.88,42.75,0.47,63.84-1.95c21.37-2.45,42.62-0.59,63.88-1.68
			c3.73-0.19,7.39-1.51,11.12-1.85c3.62-0.33,7.28-0.07,10.91-0.07c1.89-1.89,3.77-3.77,5.72-5.72c5.6-1.01,10.59,0.08,14.87,4.27
			c0.98,0.96,2.86,1.37,4.33,1.39c9.28,0.12,18.81,1.4,27.8-0.22c18.34-3.31,36.66-1.48,54.94-1.43c13.1,0.04,25.91-2.66,38.97-2.34
			c12.93,0.32,26.09,1.6,38.74-0.3c17.06-2.56,34-0.72,50.97-1.59c1.81-0.09,3.65,0.22,5.46,0.75c-6.22,1.55-12.34,2.86-18.67,3.6
			c-5.01,0.58-10.51,0.25-15.01,1.93c-5.21,1.94-10.44,0.34-15.15,1.87c-5.42,1.76-11.02,0.65-16.08,2.06
			c-5.13,1.43-10.34,0.64-15.11,1.95c-5.76,1.57-11.81,0.38-17.04,2.08c-5.86,1.91-11.74,0.3-17.12,1.89
			c-5.77,1.7-11.81,0.38-17.04,2.09c-5.86,1.92-11.73,0.28-17.14,1.83c-12.63,3.6-25.45,2.03-38,1.37
			c-7.97-0.42-16.02-1.31-24.07-1.64c-1.73-0.07-3.4-1.31-5.5-2.18c-6.46,7.24-0.76,15.85-3.88,23.9c7.83-0.03,12.19,4.14,16.87,9.4
			c-0.65,6.24,1.66,13.4-2.99,20.71c-13.83,0-28.33,0-42.83,0c0-0.99,0.17-2.8-0.02-2.84c-4.23-0.86-4.2-3.82-4.01-7.19
			c0.23-3.94,0.05-7.9,0.05-11.86c0.66-0.66,1.33-1.33,1.99-1.99c3.4,0.16,6.85,0.42,7.96-3.98c1.01-1.34,2.32-2.56,2.98-4.05
			C1658.71,458.77,1658.28,455.03,1655.9,451.04z"/>
		<path class="st1" d="M145.25,769.49c0.23-1.23,0.12-3.3,0.76-3.56c7.16-2.95,13.91-6.54,22.22-6.53
			c161.16,0.18,322.31,0.16,483.47,0.03c6.25-0.01,11.78,1.71,17.21,4.18c1.53,0.7,2.54,2.56,3.78,3.88
			c-2.17-0.3-4.22-0.31-6.48-1.13c-3.7-1.35-7.9-4.52-11.65-2.62c-4.47,2.27-8.81,1.7-13.22,1.71
			c-52.72,0.08-105.45,0.05-158.17,0.05c-98.15,0-196.31,0.02-294.46-0.1c-3.38,0-7.28,1.76-10.26-1.54
			c-6.69,0.18-13.43-1.86-20.07,1.3C154.24,767.13,149.64,768.08,145.25,769.49z"/>
		<path class="st2" d="M800.06,787.4c-1.99,4.35-5.72,1.56-8.56,1.83c-3.07,0.3-5.8,0.38-7.38,3.51c0.47,3.1,4.36,6.03,0.32,9.47
			c-0.68,0.58-0.56,2.57-0.26,3.77c2.41,9.76,2.48,9.71,0.04,18.29c-0.61,2.15-0.95,5.13,0.07,6.84c3.12,5.27,1.74,10.81,1.76,16.19
			c0.13,48.76,0.11,97.51-0.01,146.27c-0.01,3.09,1.66,6.61-1.42,9.35c-0.38,0.34-0.65,1.3-0.45,1.74
			c4.14,9.12,1.33,18.71,1.83,28.06c0.5,9.26,0.11,18.57,0.11,27.86c0,9.62,0.05,19.24-0.05,28.86c-0.01,1.52-0.77,3.01-0.99,4.54
			c-0.4,2.84-1.91,6.53-0.69,8.39c2.47,3.8,1.65,7.55,1.66,11.29c0.1,38.81,0.06,77.61,0.06,116.42c0,2.24,0,4.48,0,7.13
			c3.18,0,5.79-0.12,8.37,0.09c0.58,0.05,1.06,1.24,1.58,1.9c-4.97,0-9.95,0-14.92,0c-1.54-9.09-2.17-413.19-0.68-451.8
			C786.98,787.4,793.52,787.4,800.06,787.4z"/>
		<path class="st1" d="M141.27,1249.16c-4.41,0.41-6.2-2.77-7.95-5.9c-5.13-9.16-8.09-18.73-8.08-29.5
			c0.16-135.19,0.12-270.37,0.05-405.56c0-7.1,2.12-13.57,4.39-20.08c0.13-0.38,1.08-0.49,1.64-0.72
			c-3.67,21.52-1.87,43.22-1.9,64.83c-0.18,121.69-0.06,243.38-0.14,365.07c-0.01,10.65,3.44,19.68,10.52,27.53
			C140.73,1245.87,140.8,1247.7,141.27,1249.16z"/>
		<path class="st1" d="M686.61,783.42c4.21,3.65,4.71,8.93,5.91,13.84c0.38,1.56,0.06,3.3,0.06,4.95
			c0,139.4-0.01,278.79,0.02,418.19c0,6.94-1.03,13.47-5.99,18.8c0.66-5.03,1.87-10.05,1.9-15.09c0.18-29.5,0.09-59,0.09-88.5
			c0-29.5,0-59,0-88.5c0-29.17,0-58.34,0-87.51c0-29.5,0.36-59.01-0.1-88.5C688.05,841.88,690.7,812.57,686.61,783.42z"/>
		<path class="st2" d="M1114.53,1173.53c-1.94-5.45,4.07-7.58,5.04-11.86c0.16-0.71,2.28-0.8,2.86-1.63
			c4.09-5.9,8.12-11.85,11.97-17.92c2.65-4.17,4.99-8.53,7.44-12.83c2.28-4.01,2.06-9.31,6.34-12.3
			c1.53-11.13,9.22-20.24,10.25-31.61c0.36-3.93,1.55-7.97,3.25-11.54c1.68-3.54-1.36-7.93,2.49-11.02c0.6-0.48-0.39-2.95-0.65-4.51
			c-0.11-0.7-0.53-1.89-0.29-2.04c4.28-2.69,2.95-6.94,3.02-10.73c0.1-5.97-1.21-12.28,0.31-17.83c2.39-8.76,0.85-17.47,1.83-26.1
			c0.68-5.99-2-11.32-2.18-17.1c-0.17-5.39-0.08-10.67-1.47-16.21c-1.35-5.33-1.08-11.36-2.44-16.97
			c-1.68-6.93-3.14-13.93-5.24-20.73c-0.79-2.57-3.5-4.5-4.58-7.04c-0.94-2.23-0.46-4.8-1.31-7.39c-1.67-5.08-3.86-9.72-6.63-14.19
			c-2.44-3.93-0.8-10.54-7.62-11.6c0.05-7.71-8.18-11.81-8.44-19.39c1.23,0.23,3.14,0.04,3.59,0.76
			c12.58,20.14,23.76,40.96,30.23,63.99c1.42,5.06,3.09,10.1,3.88,15.26c0.81,5.32,1.63,10.76,2.53,15.98
			c1.16,6.76,0.17,13.73,1.88,20.04c2.37,8.78,1.4,17.41,1.59,26.1c0.15,6.71,0.41,13.35-1.64,20.12
			c-1.82,5.99,0.23,12.57-1.86,19.1c-1.56,4.86-0.69,10.68-2.3,15.97c-1.35,4.45-1.82,9.16-3.12,13.63
			c-3.07,10.61-6.61,21.04-10.63,31.37c-3.48,8.97-7.58,17.47-12.53,25.63c-3.71,6.12-7.52,12.2-11.68,18.01
			C1124.22,1162.83,1120.99,1169.55,1114.53,1173.53z"/>
		<path class="st1" d="M674.67,1253.14c-2.27,5.27-7.83,5.77-12.11,7.77c-3.91,1.83-8.41,2.29-13.01,2.28
			c-160.39-0.13-320.79-0.15-481.18,0.02c-8.28,0.01-15.13-3.37-22.27-6.38c-2.04-0.86-3.56-2.96-2.85-5.69
			c1.23,0.23,2.83,0.05,3.63,0.77c7.45,6.65,16.49,9.11,26.05,9.11c154.76,0.1,309.52,0.06,464.27,0.1c6.77,0,13.15-3.21,20.07-2.14
			c1.25,0.19,3.26-0.84,4.04-1.93C664.82,1252.14,669.89,1253.25,674.67,1253.14z"/>
		<path class="st3" d="M612.97,526.67c15.52,3.55,31.27,1.65,46.93,1.93c15.91,0.29,31.84-0.18,47.75,0.15
			c10.35,0.21,20.67,1.51,31.01,1.83c10.93,0.33,21.88,0.07,32.82,0.07c10.61,0,21.22-0.04,31.83,0.04c1.54,0.01,3.08,0.52,4.6,0.86
			c1.51,0.33,3.01,0.73,4.52,1.09c4.5,1.09,8.44-4.48,12.87-1.48c4.36,2.94,8.96,1.38,13.33,1.32c8.02-0.1,16.42-3,23.96-1.4
			c11.15,2.37,22.09,0.92,33.1,1.43c3.67,0.17,7.56,1.21,11.28-1.64c1.63-1.25,5.97-1.15,7.54,0.17c3.36,2.82,7.01,0.64,10.95,2.16
			c0,0.96,0,2.19,0,3.42c-2.71-0.66-5.38-1.6-8.13-1.92c-2.95-0.33-5.96-0.08-8.94-0.08c-60.65,0-121.31,0-181.96,0
			c-34.13-4.01-68.39-1.09-102.58-2.04C619.39,532.47,614.99,531.58,612.97,526.67z"/>
		<path class="st2" d="M1407.11,1231.25c-0.66-0.53-1.84-1-1.9-1.59c-0.22-2.3-0.09-4.63-0.09-6.95
			c0-107.76-0.02-215.51,0.13-323.27c0-2.77-2.49-6.55,1.86-8.54C1407.11,1004.35,1407.11,1117.8,1407.11,1231.25z"/>
		<path class="st2" d="M961.28,1239.21c0-1,0-1.99,0-3.69c3.47-0.1,7-0.23,10.53-0.28c3.65-0.05,7.3,0.09,10.94-0.04
			c4.11-0.15,8.06-0.47,12.22-1.57c5.05-1.33,10.46-2.39,15.96-2.76c6.91-0.46,14.14-2.64,20.32-5.84
			c8.78-4.54,18.63-6.21,27.1-11.57c8.68-5.48,18.41-9.34,25.86-16.69c2.03-2,4.26-1.06,6.43-1.36c-5.3,8.91-14.97,12.3-22.94,17.69
			c-6.04,4.09-12.87,7.28-19.72,9.86c-10.34,3.89-20.92,7.21-31.56,10.16c-7.86,2.18-16.23,2.59-24.08,4.44
			C981.89,1240.02,971.6,1238.42,961.28,1239.21z"/>
		<path class="st3" d="M1661.87,538.61c-1.29-1.03-2.58-2.06-4.98-3.98c3.97,0,6.84,0,9.71,0c14.92,0,29.85,0.04,44.77-0.06
			c1.42-0.01,3.74-0.46,4.09-1.32c1.6-4,7.21-3.96,8.09-8.41c0.19-0.96,0.45-2.49-0.04-2.9c-3.18-2.63-1.51-6.11-1.92-9.21
			c8.21,9.07,7.21,14.99,0.14,19.82c-2.38,1.63-3.34,5-6.49,5.39c-3.53,0.44-7.1,0.63-10.66,0.64
			C1690.34,538.65,1676.11,538.61,1661.87,538.61z"/>
		<path class="st2" d="M802.05,1239.21c0.86-0.66,1.7-1.87,2.57-1.9c5.63-0.17,11.26-0.09,16.9-0.09c43.08,0,86.15-0.03,129.23,0.1
			c2.14,0.01,5.33-1.97,6.55,1.89C905.55,1239.21,853.8,1239.21,802.05,1239.21z"/>
		<path class="st2" d="M1522.55,793.37c-0.66,0-1.62,0.28-1.92-0.04c-4.53-4.86-10.41-3.96-16.12-3.95
			c-20.35,0.04-40.7,0.05-61.05-0.05c-1.58-0.01-4.17,1.37-4.5-1.93c27.64,0,55.28,0,83.59,0
			C1522.55,789.6,1522.55,791.49,1522.55,793.37z"/>
		<path class="st2" d="M1253.86,787.4c-0.34,3.3-2.92,1.92-4.51,1.93c-19.38,0.1-38.77,0.05-58.15,0.07c-3.29,0-7.12-0.98-8.15,3.94
			c-0.04,0.2-1.85,0.03-2.84,0.03c0-1.65,0-3.29,0-5.89c12.34-0.17,24.72-0.05,37.09-0.07
			C1229.49,787.39,1241.67,787.4,1253.86,787.4z"/>
		<path class="st2" d="M1375.27,787.4c-0.52,0.66-1.04,1.9-1.57,1.91c-20.85,0.1-41.69,0.1-62.54,0c-0.53,0-1.05-1.24-1.57-1.91
			C1331.48,787.4,1353.37,787.4,1375.27,787.4z"/>
		<path class="st2" d="M1180.22,823.23c0.66,0.52,1.9,1.04,1.91,1.57c0.1,18.19,0.1,36.39,0,54.58c0,0.53-1.24,1.05-1.91,1.57
			C1180.22,861.71,1180.22,842.47,1180.22,823.23z"/>
		<path class="st2" d="M1359.34,1239.21c0.02-2.68,2.06-1.96,3.49-1.96c8.82-0.05,17.65-0.03,26.47-0.03c3.27,0,6.56,0.26,9.8-0.08
			c2.71-0.28,5.34-1.25,8.01-1.91c0,0.98,0,1.97,0,2.95c-0.22,0.24-0.42,0.51-0.68,0.69c-0.24,0.17-0.56,0.32-0.84,0.32
			C1390.18,1239.21,1374.76,1239.21,1359.34,1239.21z"/>
		<path class="st3" d="M1643.96,472.93c0,3.95,0.17,7.92-0.05,11.86c-0.19,3.37-0.22,6.33,4.01,7.19c0.19,0.04,0.02,1.85,0.02,2.84
			c-6.17-1.75-7.89-3.47-7.93-8.57C1639.98,481.46,1638.92,476.27,1643.96,472.93z"/>
		<path class="st2" d="M1090.65,1195.42c0.22-1.21,0.03-2.78,0.72-3.57c2.58-2.92,5.69-5.4,8.14-8.41c2.06-2.54,4.57-1.84,7.06-1.95
			c-4.1,4.43-8.13,8.94-12.38,13.23C1093.49,1195.43,1091.86,1195.21,1090.65,1195.42z"/>
		<path class="st1" d="M672.68,767.5c6.94,1.97,11.48,7.26,11.94,13.93c-3.77-3.44-7.62-6.79-11.23-10.38
			C672.68,770.35,672.9,768.71,672.68,767.5z"/>
		<path class="st2" d="M897.59,787.4c-0.52,0.66-1.04,1.9-1.56,1.91c-9.57,0.12-19.14,0.12-28.72,0c-0.53-0.01-1.04-1.24-1.56-1.91
			C876.36,787.4,886.97,787.4,897.59,787.4z"/>
		<path class="st3" d="M1655.9,451.04c2.37,3.99,2.8,7.73,0.99,11.87c-0.66,1.5-1.97,2.71-2.98,4.05c0-4.49-0.1-8.99,0.09-13.48
			C1654.04,452.64,1655.24,451.85,1655.9,451.04z"/>
		<path class="st2" d="M935.41,787.4c-0.23,0.56-0.46,1.61-0.69,1.62c-6.83,0.09-13.67,0.09-20.5,0c-0.24,0-0.46-1.05-0.69-1.62
			C920.81,787.4,928.11,787.4,935.41,787.4z"/>
		<path class="st2" d="M1321.53,1239.21c0.23-0.56,0.46-1.62,0.69-1.62c6.83-0.09,13.67-0.09,20.5,0c0.24,0,0.46,1.05,0.69,1.62
			C1336.12,1239.21,1328.83,1239.21,1321.53,1239.21z"/>
		<path class="st2" d="M851.81,787.4c-0.23,0.56-0.46,1.61-0.69,1.62c-6.83,0.09-13.67,0.09-20.5,0c-0.24,0-0.46-1.05-0.69-1.62
			C837.22,787.4,844.51,787.4,851.81,787.4z"/>
		<path class="st2" d="M1518.57,886.92c0-0.94,0.13-1.89-0.02-2.81c-0.58-3.54,1.8-3.21,4-3.16c0,2.84,0.53,5.88-2.67,7.53
			C1519.74,888.55,1519.02,887.47,1518.57,886.92z"/>
		<path class="st2" d="M1124.49,865.03c-3.5-0.44-5.19-2.69-5.97-7.96C1121.71,858.81,1124.79,860.66,1124.49,865.03z"/>
		<path class="st3" d="M1653.91,466.96c-1.11,4.4-4.56,4.14-7.96,3.98C1647.07,466.54,1650.52,466.8,1653.91,466.96z"/>
		<path class="st1" d="M680.64,1247.17c-1.99,1.99-3.98,3.98-5.97,5.97c0-1.82,0-3.65,0-5.97
			C676.99,1247.17,678.82,1247.17,680.64,1247.17z"/>
		<path class="st2" d="M815.99,787.4c-3.73,2.82-8.22,2.82-11.94,0C808.02,787.4,812.01,787.4,815.99,787.4z"/>
		<path class="st2" d="M957.3,787.4c-3.73,2.82-8.22,2.82-11.94,0C949.34,787.4,953.32,787.4,957.3,787.4z"/>
		<path class="st1" d="M684.62,1241.2c0,0.94-0.13,1.89,0.02,2.81c0.58,3.54-1.8,3.21-4,3.16
			C680.32,1244.08,681.48,1241.98,684.62,1241.2z"/>
		<path class="st2" d="M1431,787.4c-2.52,2.69-5.44,2.69-7.96,0C1425.69,787.4,1428.34,787.4,1431,787.4z"/>
		<path class="st1" d="M133.3,781.43c-0.6-3.26,0.72-4.58,3.98-3.98C137.89,780.71,136.56,782.04,133.3,781.43z"/>
		<path class="st1" d="M131.31,787.4c0.76-1.96-1.84-5.04,1.99-5.97C132.55,783.39,135.15,786.47,131.31,787.4z"/>
		<path class="st2" d="M1405.12,787.4c-0.83,0.66-1.65,1.33-2.48,1.99c-0.5-0.66-1-1.33-1.5-1.99
			C1402.47,787.4,1403.8,787.4,1405.12,787.4z"/>
		<path class="st2" d="M1311.58,1239.21c0.83-0.66,1.65-1.33,2.48-1.99c0.5,0.66,1,1.33,1.5,1.99
			C1314.23,1239.21,1312.9,1239.21,1311.58,1239.21z"/>
		<path class="st1" d="M141.27,773.47c0.66-0.66,1.33-1.33,1.99-1.99C142.59,772.14,141.93,772.81,141.27,773.47z"/>
		<path class="st1" d="M139.28,775.46c0.66-0.66,1.33-1.33,1.99-1.99C140.6,774.13,139.94,774.8,139.28,775.46z"/>
		<path class="st1" d="M137.28,777.45c0.66-0.66,1.33-1.33,1.99-1.99C138.61,776.13,137.95,776.79,137.28,777.45z"/>
		<path class="st1" d="M684.62,781.43c0.66,0.66,1.33,1.33,1.99,1.99C685.95,782.76,685.29,782.1,684.62,781.43z"/>
		<path class="st2" d="M1522.55,837.16c-0.55-0.44-1.1-0.89-1.65-1.33c0.55-0.22,1.1-0.44,1.65-0.66
			C1522.55,835.83,1522.55,836.5,1522.55,837.16z"/>
		<path class="st2" d="M1522.55,801.34c-0.55-0.44-1.1-0.89-1.65-1.33c0.55-0.22,1.1-0.44,1.65-0.66
			C1522.55,800.01,1522.55,800.67,1522.55,801.34z"/>
		<path class="st2" d="M1180.22,817.26c0.55,0.45,1.1,0.89,1.65,1.33c-0.55,0.22-1.1,0.44-1.65,0.66
			C1180.22,818.59,1180.22,817.92,1180.22,817.26z"/>
		<path class="st2" d="M1126.48,867.02c-0.66-0.66-1.33-1.33-1.99-1.99C1125.15,865.69,1125.81,866.35,1126.48,867.02z"/>
		<path class="st2" d="M1295.65,787.4c-0.44,0.55-0.89,1.1-1.33,1.65c-0.22-0.55-0.44-1.1-0.66-1.65
			C1294.33,787.4,1294.99,787.4,1295.65,787.4z"/>
		<path class="st2" d="M1522.55,849.1c-0.55-0.44-1.1-0.89-1.65-1.33c0.55-0.22,1.1-0.44,1.65-0.66
			C1522.55,847.78,1522.55,848.44,1522.55,849.1z"/>
		<path class="st1" d="M143.26,771.48c0.66-0.66,1.33-1.33,1.99-1.99C144.58,770.15,143.92,770.82,143.26,771.48z"/>
		<path class="st1" d="M686.61,1239.21c-0.66,0.66-1.33,1.33-1.99,1.99C685.29,1240.53,685.95,1239.87,686.61,1239.21z"/>
		<path class="st2" d="M1128.47,869.01c-0.66-0.66-1.33-1.33-1.99-1.99C1127.14,867.68,1127.8,868.34,1128.47,869.01z"/>
		<path class="st1" d="M143.26,1251.15c-0.66-0.66-1.33-1.33-1.99-1.99C141.93,1249.82,142.59,1250.49,143.26,1251.15z"/>
		<path class="st2" d="M887.64,888.91c0,83.96,0,167.92,0,252.77c2.62,0,5.15-0.06,7.67,0.02c2.58,0.08,5.92-0.65,7.57,0.67
			c2.99,2.4,4.34-2.5,6.65-0.69c0,0.99,0,1.98,0,2.98c-0.52,0.34-1.04,0.96-1.56,0.96c-7.23,0.06-14.46,0.04-22.27,0.04
			c-0.71-3.54-1.95-6.85-1.95-10.17c-0.11-81.34-0.08-162.68-0.07-244.03c0-0.62,0.19-1.24,0.4-2.55
			C885.18,888.91,886.41,888.91,887.64,888.91z"/>
		<path class="st3" d="M143.26,1251.15c-0.66-0.66-1.33-1.33-1.99-1.99c-0.47-1.46-0.53-3.29-1.47-4.33
			c-7.08-7.85-10.53-16.87-10.52-27.53c0.08-121.69-0.04-243.38,0.14-365.07c0.03-21.61-1.77-43.31,1.9-64.83
			c3.84-0.93,1.23-4.01,1.99-5.97c3.26,0.6,4.58-0.72,3.98-3.98c0.66-0.66,1.33-1.33,1.99-1.99c0.66-0.66,1.33-1.33,1.99-1.99
			c0.66-0.66,1.33-1.33,1.99-1.99c0.66-0.66,1.33-1.33,1.99-1.99c4.39-1.41,9-2.36,13.13-4.32c6.64-3.16,13.37-1.12,20.07-1.3
			c2.98,3.3,6.88,1.53,10.26,1.54c98.15,0.12,196.3,0.1,294.46,0.1c52.72,0,105.45,0.03,158.17-0.05c4.41-0.01,8.75,0.56,13.22-1.71
			c3.75-1.9,7.95,1.27,11.65,2.62c2.26,0.83,4.32,0.84,6.48,1.13c0.21,1.21,0,2.85,0.71,3.55c3.61,3.59,7.46,6.94,11.23,10.38
			c0.66,0.66,1.33,1.33,1.99,1.99c4.09,29.15,1.43,58.45,1.89,87.68c0.46,29.49,0.1,59,0.1,88.5c0,29.17,0,58.34,0,87.51
			c0,29.5,0,59,0,88.5c0,29.5,0.09,59-0.09,88.5c-0.03,5.03-1.24,10.06-1.9,15.09c-0.66,0.66-1.33,1.33-1.99,1.99
			c-3.14,0.78-4.3,2.88-3.98,5.97c-1.83,0-3.65,0-5.97,0c0,2.32,0,4.15,0,5.97c-4.79,0.11-9.85-1-13.35,3.92
			c-0.78,1.09-2.79,2.13-4.04,1.93c-6.92-1.07-13.3,2.14-20.07,2.14c-154.76-0.03-309.52,0-464.27-0.1
			c-9.56-0.01-18.6-2.46-26.05-9.11C146.08,1251.2,144.48,1251.38,143.26,1251.15z M471.66,803.33c-0.66-0.66-1.33-1.33-1.99-1.99
			c-1.01-5.12-2.84-6.95-7.96-7.96c-1.53-2.82-3.94-4.36-6.63-6.2c-9.09-6.21-20.23-6.7-29.69-11.62c-0.13-0.07-0.98,1.24-1.5,1.9
			c-4.2,0-8.4-0.02-12.6,0.01c-1.99,0.01-11.47,2.89-13.27,3.97c-0.66,0.5-1.4,0.93-1.97,1.52c-0.74,0.75-1.34,1.63-2.01,2.46
			c-2.96-3.88-6.76-2.36-9.9-0.88c-5.5,2.58-10.67,5.86-15.97,8.84c-0.22-0.55-0.44-1.1-0.66-1.65c-0.44,0.55-0.89,1.1-1.33,1.65
			c-0.66,0.66-1.33,1.33-1.99,1.99c-1.51,0.3-3.81-0.99-3.98,1.99c-0.66,0.66-1.33,1.33-1.99,1.99c-0.66,0.66-1.33,1.33-1.99,1.99
			c-0.66,0.66-1.33,1.33-1.99,1.99c-2.98,0.17-1.69,2.47-1.99,3.98c-3.26-0.6-4.58,0.72-3.98,3.98c-3.14,0.78-4.3,2.88-3.98,5.97
			c-1.33,1.24-3.25,2.23-3.88,3.76c-3.59,8.69-6.87,17.51-5.95,27.2c3.04,1.64,6.01,2.96,9.73,2.96
			c49.94-0.13,99.89-0.08,149.83-0.13c0.51,0,1.01-0.64,1.75-1.13c-1.32-0.45-2.47-0.85-4.75-1.63c3.67-10.41-2.9-19.12-6.2-28.35
			c-1.96-5.47-4.98-11.65-11.15-14.62C472.99,804.65,472.32,803.99,471.66,803.33z M443.79,904.83c-0.66,0.66-1.33,1.33-1.99,1.99
			c-1.51,0.3-3.81-0.99-3.98,1.99c-0.55,0.22-1.1,0.44-1.65,0.66c0.55,0.44,1.1,0.89,1.65,1.33c-0.17,2.98-2.47,1.69-3.98,1.99
			c-1.51,0.3-3.81-0.99-3.98,1.99c-3.61,0.78-7.44-1.37-11.08,1.73c-1.51,1.29-5.25,0.93-7.56,0.13c-6.51-2.28-12.8-5.18-19.18-7.83
			c-0.66-0.66-1.33-1.33-1.99-1.99c-0.17-2.98-2.47-1.69-3.98-1.99c-0.3-1.51,0.99-3.81-1.99-3.98c-1.55-7.29-6.03-13.25-9.09-19.85
			c-0.17-0.38-1.87-0.05-2.85-0.05c-1.7-0.66-3.4-1.86-5.12-1.9c-8.15-0.2-16.31-0.09-24.44-0.09c-0.11,8.52-0.08,8.38,6.91,10.03
			c2.49,0.59,5.43,0.95,6.72,3.88c2.97,6.7,7.32,12.86,8.21,21.78c-0.71,0.48-2.14,1.31-3.4,2.34c-1.2,0.98-2.22,2.18-2.96,2.92
			c1.15,3.4,1.37,6.63,3.08,8.44c1.98,2.1,5.18,3.87,8.01,4.16c5.04,0.5,5.79-4.88,8.53-7.92c6.46,1.09,11.61,5.21,17.41,7.96
			c6.3,2.99,8.99,7.46,8.88,14.09c0,1.23,0,2.45,0,3.98c7.24,0,13.79,0.02,20.34-0.04c0.52-0.01,1.03-0.63,1.55-0.97
			c0-0.99,0-1.98,0-2.97c0.66,0,1.33,0,1.99,0c0.55-0.22,1.1-0.44,1.65-0.66c-0.55-0.44-1.1-0.89-1.65-1.33c0-0.66,0-1.33,0-1.99
			c2.98-0.17,1.69-2.47,1.99-3.98c0.97-0.64,1.98-1.87,2.91-1.81c3.48,0.23,3.1-2.01,3.07-4.16c3.4,0.16,6.85,0.42,7.96-3.98
			c4.32-1.4,7.85,1.97,11.94,1.99c0.17,2.98,2.47,1.69,3.98,1.99c1.52,4.27,4.98,1.33,7.47,1.88c3.26,0.72,2.33-2.11,2.48-3.87
			c6.8-1.86,6.8-1.86,4.92-11.94c-0.98,0-1.96,0-2.93,0c0.6-3.26-0.72-4.58-3.98-3.98c-0.2-5.7,2.68-10.5,4.65-15.55
			c1.09-2.78,3.66-4.97,3.31-8.34c1.87,0,3.78,0.21,5.61-0.09c0.86-0.14,1.57-1.24,2.35-1.9c3.85-3.39,3.85-3.39,3.23-9.82
			c-9.45,0-18.91,0-28.69,0c-0.81,2.65-1.24,5.46-2.48,7.85c-2.46,4.72-3.86,10.07-7.88,13.91c-0.22-0.55-0.44-1.1-0.66-1.65
			c-0.44,0.55-0.89,1.1-1.33,1.65C442.81,901.02,444.09,903.32,443.79,904.83z M372.14,1225.28c0,1.23,0,2.46,0,3.66
			c29.2,1.13,94.22,0.65,95.54-0.68c0-0.99,0-1.99,0-2.98c0.66-0.66,1.33-1.33,1.99-1.99c4.35-1.99,1.86-5.77,1.86-8.54
			c0.16-81.88,0.13-163.76,0.13-245.65c0-2.32,0.13-4.65-0.09-6.95c-0.06-0.58-1.24-1.06-1.9-1.58c-32.51,0-65.02,0-97.53,0
			c-4.35,1.99-1.86,5.77-1.86,8.54c-0.16,82.55-0.13,165.09-0.13,247.64c0,2.32-0.13,4.65,0.09,6.95
			C370.3,1224.27,371.48,1224.75,372.14,1225.28z M503.5,868.1c0-2.54,0.11-5.18-0.03-7.8c-0.19-3.45-1.85-4.99-5.46-5.21
			c-1.65-0.1-3.32-0.02-4.97-0.02c-52.74,0-105.48,0-158.22,0c-1.66,0-3.32-0.08-4.97,0.02c-3.6,0.22-5.25,1.77-5.46,5.21
			c-0.12,1.98-0.2,4,0.02,5.96c0.32,2.83,1.75,4.76,4.94,4.73c1.33-0.01,2.65,0,3.98,0c53.07,0,106.14-0.06,159.21,0.11
			C496.62,871.12,499.93,869.86,503.5,868.1z"/>
		<path class="st1" d="M344.28,817.26c0.59,6.2-3.87,11.15-4.28,17.14c-0.12,1.78-0.98,3.55-1.73,5.22
			c-0.61,1.37-1.55,2.6-2.22,3.69c0.42,0.74,0.54,1.04,0.74,1.26c0.21,0.22,0.5,0.52,0.76,0.52c50.36,0.02,100.73,0.02,151.08,0.02
			c1.93-2.64-0.05-4.49-0.68-6.92c-2.57-9.77-7.18-18.4-13-26.43c-1.61-2.22-1-4.29-1.3-6.45c6.17,2.98,9.2,9.15,11.15,14.62
			c3.3,9.23,9.87,17.94,6.2,28.35c2.28,0.78,3.43,1.18,4.75,1.63c-0.74,0.5-1.25,1.13-1.75,1.13c-49.94,0.05-99.89,0-149.83,0.13
			c-3.72,0.01-6.68-1.32-9.73-2.95c-0.92-9.7,2.36-18.51,5.95-27.2C341.03,819.49,342.95,818.5,344.28,817.26z"/>
		<path class="st1" d="M372.14,960.56c0,88.24,0,176.48,0,264.71c-0.66-0.53-1.84-1-1.9-1.58c-0.22-2.3-0.09-4.63-0.09-6.95
			c0-82.55-0.03-165.09,0.13-247.64C370.29,966.33,367.79,962.55,372.14,960.56z"/>
		<path class="st1" d="M469.67,1223.28c0-87.57,0-175.15,0-262.72c0.66,0.53,1.84,1,1.9,1.58c0.22,2.3,0.09,4.63,0.09,6.95
			c0,81.88,0.03,163.76-0.13,245.65C471.53,1217.51,474.02,1221.3,469.67,1223.28z"/>
		<path class="st1" d="M382.09,1225.28c28.53,0,57.06,0,85.58,0c0,0.99,0,1.99,0,2.98c-1.31,1.32-66.33,1.81-95.54,0.68
			c0-1.2,0-2.43,0-3.66c2.65,0,5.31,0,7.96,0c0.22,0.55,0.44,1.1,0.66,1.65C381.2,1226.38,381.65,1225.83,382.09,1225.28z"/>
		<path class="st1" d="M461.71,793.37c-2.53-0.11-4.75,0.04-7.2-1.91c-4.04-3.21-8.87-5.52-13.58-7.75
			c-1.6-0.76-3.86-0.12-6.02-0.12c-4.86,4.16-2.08,10.59-3.75,16.61c-1.28-4.1-2.97-7.29-3.08-10.54c-0.1-2.93,1.52-5.93,2.14-8.08
			c-1.38-3.89-5.98,0.06-6.33-4.13c0.51-0.66,1.36-1.97,1.5-1.9c9.46,4.92,20.6,5.42,29.69,11.62
			C457.77,789.01,460.18,790.55,461.71,793.37z"/>
		<path class="st1" d="M429.86,914.78c-1.11,0.78-2.15,1.69-3.34,2.32c-7.01,3.67-14.56,1.51-21.77,1.35
			c-3.82-0.09-7.69-3.24-11.28-5.44c-0.97-0.59-0.97-2.76-1.42-4.2c6.38,2.65,12.67,5.55,19.18,7.83c2.31,0.81,6.05,1.16,7.56-0.13
			C422.42,913.42,426.25,915.56,429.86,914.78z"/>
		<path class="st1" d="M403.99,946.63c7.3,0,14.6,0,21.89,0c0,0.99,0,1.98,0,2.97c-0.52,0.34-1.03,0.96-1.55,0.97
			c-6.55,0.07-13.11,0.04-20.34,0.04C403.99,949.08,403.99,947.85,403.99,946.63z"/>
		<path class="st1" d="M384.09,900.85c-0.99,0-2.68,0.33-2.85-0.05c-3.06-6.6-7.55-12.57-9.09-19.85c0.99,0,2.68-0.33,2.85,0.05
			C378.06,887.6,382.54,893.56,384.09,900.85z"/>
		<path class="st1" d="M467.68,914.78c-4.27-1.92-2.3-5.94-1.73-8.27c1.27-5.18,3.85-10.05,6.19-14.91c0.31-0.65,2.3-0.49,3.51-0.7
			c0.35,3.36-2.22,5.55-3.31,8.34C470.35,904.28,467.48,909.08,467.68,914.78z"/>
		<path class="st1" d="M398.02,781.43c0,5.86,0,11.72,0,17.74c-1.54,0-2.43,0-3.98,0c0-4.67,0-9.21,0-13.76
			c0.66-0.83,1.27-1.7,2.01-2.46C396.62,782.37,397.35,781.93,398.02,781.43z"/>
		<path class="st1" d="M469.67,930.71c0.02-4.09,3.39-7.62,1.99-11.94c0.98,0,1.96,0,2.93,0
			C476.47,928.85,476.47,928.85,469.67,930.71z"/>
		<path class="st1" d="M443.79,928.72c1.33-1,2.53-2.28,4.01-2.94c4.99-2.24,6.19-1.42,7.93,4.93
			C451.65,930.69,448.12,927.32,443.79,928.72z"/>
		<path class="st1" d="M469.67,801.34c-5.12-1.01-6.95-2.84-7.96-7.96C466.83,794.38,468.66,796.22,469.67,801.34z"/>
		<path class="st1" d="M459.72,932.7c3.32-0.66,6.63-1.33,9.95-1.99c-0.15,1.76,0.78,4.59-2.48,3.87
			C464.7,934.03,461.24,936.96,459.72,932.7z"/>
		<path class="st1" d="M429.86,938.67c0.42-4.46,1.51-5.55,5.97-5.97c0.04,2.15,0.41,4.39-3.07,4.16
			C431.84,936.8,430.83,938.03,429.86,938.67z"/>
		<path class="st1" d="M435.83,932.7c1.11-4.4,4.56-4.14,7.96-3.98C442.68,933.12,439.23,932.86,435.83,932.7z"/>
		<path class="st1" d="M348.26,811.29c0,0.94-0.13,1.89,0.02,2.81c0.58,3.54-1.8,3.21-4,3.16
			C343.96,814.17,345.12,812.07,348.26,811.29z"/>
		<path class="st1" d="M475.64,890.9c0.78-0.66,1.49-1.76,2.35-1.9c1.83-0.3,3.73-0.09,5.61-0.09c-0.78,0.66-1.49,1.76-2.35,1.9
			C479.42,891.11,477.51,890.9,475.64,890.9z"/>
		<path class="st1" d="M352.24,807.31c0.6,3.26-0.72,4.58-3.98,3.98C347.66,808.03,348.98,806.7,352.24,807.31z"/>
		<path class="st1" d="M471.66,918.77c-1.33-1.33-2.65-2.65-3.98-3.98C470.94,914.18,472.26,915.51,471.66,918.77z"/>
		<path class="st1" d="M390.06,906.82c-1.51-0.3-3.81,0.99-3.98-1.99C387.58,905.13,389.89,903.85,390.06,906.82z"/>
		<path class="st1" d="M433.84,912.79c-0.17,2.98-2.47,1.69-3.98,1.99C430.03,911.81,432.33,913.09,433.84,912.79z"/>
		<path class="st1" d="M455.74,930.71c1.51,0.3,3.81-0.99,3.98,1.99C458.21,932.4,455.91,933.68,455.74,930.71z"/>
		<path class="st1" d="M441.8,906.82c-0.17,2.98-2.47,1.69-3.98,1.99C437.99,905.84,440.3,907.12,441.8,906.82z"/>
		<path class="st1" d="M386.08,904.83c-2.98-0.17-1.69-2.47-1.99-3.98C387.06,901.02,385.78,903.32,386.08,904.83z"/>
		<path class="st1" d="M445.79,900.85c-0.3,1.51,0.99,3.81-1.99,3.98C444.09,903.32,442.81,901.02,445.79,900.85z"/>
		<path class="st1" d="M427.87,942.65c0.3-1.51-0.99-3.81,1.99-3.98C429.56,940.18,430.85,942.48,427.87,942.65z"/>
		<path class="st1" d="M354.23,803.33c-0.3,1.51,0.99,3.81-1.99,3.98C352.54,805.8,351.25,803.5,354.23,803.33z"/>
		<path class="st1" d="M364.18,795.36c-0.17,2.98-2.47,1.69-3.98,1.99C360.37,794.38,362.67,795.66,364.18,795.36z"/>
		<path class="st1" d="M447.78,900.85c-0.66,0-1.33,0-1.99,0c0.45-0.55,0.89-1.1,1.33-1.65
			C447.34,899.75,447.56,900.3,447.78,900.85z"/>
		<path class="st1" d="M443.79,904.83c-0.66,0.66-1.33,1.33-1.99,1.99C442.47,906.16,443.13,905.5,443.79,904.83z"/>
		<path class="st1" d="M392.05,908.81c-0.66-0.66-1.33-1.33-1.99-1.99C390.72,907.49,391.38,908.15,392.05,908.81z"/>
		<path class="st1" d="M437.82,908.81c0,0.66,0,1.33,0,1.99c-0.55-0.45-1.1-0.89-1.65-1.33
			C436.72,909.25,437.27,909.03,437.82,908.81z"/>
		<path class="st1" d="M358.21,799.35c-0.66,0.66-1.33,1.33-1.99,1.99C356.88,800.67,357.55,800.01,358.21,799.35z"/>
		<path class="st1" d="M360.2,797.36c-0.66,0.66-1.33,1.33-1.99,1.99C358.87,798.68,359.54,798.02,360.2,797.36z"/>
		<path class="st1" d="M368.16,793.37c-0.66,0-1.33,0-1.99,0c0.44-0.55,0.89-1.1,1.33-1.65
			C367.73,792.27,367.94,792.82,368.16,793.37z"/>
		<path class="st1" d="M356.22,801.34c-0.66,0.66-1.33,1.33-1.99,1.99C354.89,802.66,355.56,802,356.22,801.34z"/>
		<path class="st1" d="M471.66,803.33c-0.66-0.66-1.33-1.33-1.99-1.99C470.33,802,471,802.66,471.66,803.33z"/>
		<path class="st1" d="M427.87,946.63c0-0.66,0-1.33,0-1.99c0.55,0.44,1.1,0.89,1.65,1.33
			C428.97,946.19,428.42,946.41,427.87,946.63z"/>
		<path class="st1" d="M473.65,805.32c-0.66-0.66-1.33-1.33-1.99-1.99C472.32,803.99,472.99,804.65,473.65,805.32z"/>
		<path class="st3" d="M382.09,1225.28c-0.44,0.55-0.89,1.1-1.33,1.65c-0.22-0.55-0.44-1.1-0.66-1.65
			C380.77,1225.28,381.43,1225.28,382.09,1225.28z"/>
	</g>
</g>
<g id="Calque_2">
	<g>
		<path class="st4" d="M178.19,1383.2c-2.65,1.32-8.48,2.77-15.9,2.77c-19.43,0-31.27-12.2-31.27-30.86
			c0-20.14,14.07-32.31,32.79-32.31c7.37,0,12.57,1.49,14.83,2.71l-2.43,8.92c-2.85-1.3-6.93-2.4-11.94-2.4
			c-12.48,0-21.47,7.8-21.47,22.52c0,13.5,7.87,22.05,21.33,22.05c4.52,0,9.25-0.9,12.21-2.22L178.19,1383.2z"/>
		<path class="st4" d="M211.35,1385.01l-0.77-4.93h-0.27c-2.68,3.49-7.31,5.93-13.04,5.93c-8.98,0-13.95-6.41-13.95-13.16
			c0-11.16,9.95-16.82,26.25-16.75v-0.73c0-2.91-1.15-7.74-8.98-7.71c-4.33,0-8.88,1.4-11.9,3.3l-2.22-7.26
			c3.34-2.03,9.07-3.93,16.04-3.93c14.19,0,18.24,8.95,18.24,18.66v15.93c0,4.02,0.2,7.93,0.69,10.66H211.35z M209.86,1363.34
			c-7.89-0.1-15.45,1.56-15.45,8.3c0,4.33,2.84,6.37,6.38,6.37c4.47,0,7.68-2.88,8.76-6.12c0.24-0.78,0.31-1.66,0.31-2.43V1363.34z"
			/>
		<path class="st4" d="M232.25,1385.01c0.2-2.98,0.36-7.87,0.36-12.41v-52.12h11.18v26.37h0.18c2.71-4.33,7.54-7.09,14.13-7.09
			c10.79,0,18.52,8.94,18.44,22.43c0,15.91-10.08,23.82-20.1,23.82c-5.71,0-10.75-2.18-13.94-7.66h-0.2l-0.5,6.66H232.25z
			 M243.8,1366.7c0,0.93,0.1,1.84,0.28,2.64c1.18,4.53,5.05,7.83,9.87,7.83c7.01,0,11.25-5.58,11.25-14.52
			c0-7.78-3.76-14.19-11.13-14.19c-4.53,0-8.71,3.24-9.91,8.17c-0.21,0.87-0.36,1.84-0.36,2.9V1366.7z"/>
		<path class="st4" d="M297.65,1328.38c0.01,3.34-2.41,6.03-6.38,6.03c-3.71,0-6.14-2.69-6.13-6.03c-0.01-3.41,2.51-6.05,6.26-6.05
			C295.2,1322.33,297.61,1324.94,297.65,1328.38z M285.8,1385.01v-44.25h11.2v44.25H285.8z"/>
		<path class="st4" d="M309.06,1353.92c0-5.11-0.16-9.33-0.36-13.16h9.78l0.55,6.64h0.26c1.96-3.43,6.75-7.64,14.1-7.64
			c7.71,0,15.73,4.97,15.73,18.96v26.28h-11.2v-24.96c0-6.35-2.33-11.19-8.44-11.19c-4.45,0-7.53,3.14-8.7,6.56
			c-0.34,0.92-0.51,2.28-0.51,3.55v26.04h-11.2V1353.92z"/>
		<path class="st4" d="M368.92,1365.98c0.3,8.02,6.5,11.52,13.66,11.52c5.15,0,8.83-0.81,12.21-2.05l1.66,7.7
			c-3.79,1.61-9.04,2.81-15.46,2.81c-14.37,0-22.78-8.87-22.78-22.43c0-12.21,7.41-23.77,21.64-23.77
			c14.38,0,19.06,11.83,19.06,21.52c0,2.08-0.18,3.74-0.4,4.7H368.92z M388.38,1358.19c0.05-4.1-1.73-10.78-9.23-10.78
			c-6.89,0-9.75,6.25-10.25,10.78H388.38z"/>
		<path class="st4" d="M420.75,1328.09v12.67h10.64v8.34h-10.64v19.52c0,5.42,1.44,8.17,5.72,8.17c1.91,0,3.35-0.22,4.35-0.49
			l0.23,8.51c-1.68,0.63-4.61,1.15-8.14,1.15c-4.11,0-7.54-1.4-9.62-3.65c-2.4-2.54-3.5-6.61-3.5-12.41v-20.81h-6.31v-8.34h6.31
			v-10.02L420.75,1328.09z"/>
		<path class="st4" d="M499.43,1320.48v52.12c0,4.54,0.16,9.41,0.36,12.41h-9.96l-0.5-7h-0.2c-2.64,4.95-7.98,8-14.37,8
			c-10.57,0-18.93-9.01-18.93-22.61c-0.07-14.83,9.19-23.63,19.84-23.63c6.06,0,10.42,2.5,12.4,5.77h0.18v-25.05H499.43z
			 M488.24,1359.2c0-0.9-0.06-2.01-0.25-2.92c-0.99-4.31-4.59-7.86-9.62-7.86c-7.21,0-11.2,6.36-11.2,14.56
			c0,8.13,4.03,14.07,11.08,14.07c4.57,0,8.53-3.12,9.66-7.96c0.25-1,0.34-2.09,0.34-3.26V1359.2z"/>
		<path class="st4" d="M519.34,1365.98c0.3,8.02,6.5,11.52,13.66,11.52c5.15,0,8.83-0.81,12.21-2.05l1.66,7.7
			c-3.79,1.61-9.04,2.81-15.46,2.81c-14.37,0-22.78-8.87-22.78-22.43c0-12.21,7.41-23.77,21.64-23.77
			c14.38,0,19.06,11.83,19.06,21.52c0,2.08-0.18,3.74-0.4,4.7H519.34z M538.8,1358.19c0.05-4.1-1.73-10.78-9.23-10.78
			c-6.89,0-9.75,6.25-10.25,10.78H538.8z"/>
		<path class="st4" d="M626.7,1382.22c-3.96,1.42-11.57,3.41-19.72,3.41c-10.34,0-18.22-2.6-24-8.16c-5.47-5.22-8.62-13.26-8.6-22.5
			c0.05-19.43,13.87-31.82,34.14-31.82c7.54,0,13.41,1.53,16.26,2.88l-2.48,9.01c-3.34-1.47-7.44-2.61-13.93-2.61
			c-13.04,0-22.25,7.73-22.25,21.97c0,13.94,8.58,22.15,21.27,22.15c4.05,0,7.03-0.53,8.46-1.22v-15.29h-10.79v-8.79h21.65V1382.22z
			"/>
		<path class="st4" d="M646.13,1365.98c0.3,8.02,6.5,11.52,13.66,11.52c5.15,0,8.83-0.81,12.21-2.05l1.66,7.7
			c-3.79,1.61-9.04,2.81-15.46,2.81c-14.37,0-22.78-8.87-22.78-22.43c0-12.21,7.41-23.77,21.64-23.77
			c14.38,0,19.06,11.83,19.06,21.52c0,2.08-0.18,3.74-0.4,4.7H646.13z M665.58,1358.19c0.05-4.1-1.73-10.78-9.23-10.78
			c-6.89,0-9.75,6.25-10.25,10.78H665.58z M670.61,1321.57l-11.1,13.45h-7.75l7.89-13.45H670.61z"/>
		<path class="st4" d="M727.18,1362.45c0,16.27-11.41,23.56-22.73,23.56c-12.48,0-22.14-8.62-22.14-22.8
			c0-14.51,9.56-23.45,22.89-23.45C718.37,1339.76,727.18,1349.04,727.18,1362.45z M693.81,1362.93c0,8.51,4.25,14.95,11,14.95
			c6.41,0,10.87-6.19,10.87-15.1c0-6.95-3.08-14.89-10.8-14.89C697.03,1347.89,693.81,1355.56,693.81,1362.93z"/>
		<path class="st4" d="M736.41,1353.92c0-5.11-0.16-9.33-0.36-13.16h9.56l0.51,6.5h0.26c2.14-3.43,6.16-7.5,13.63-7.5
			c5.86,0,10.37,3.26,12.27,8.16h0.18c1.55-2.42,3.41-4.27,5.41-5.56c2.52-1.69,5.31-2.6,8.99-2.6c7.31,0,14.77,5.01,14.77,19.2
			v26.05h-10.91v-24.47c0-7.37-2.55-11.7-7.89-11.7c-3.83,0-6.63,2.7-7.78,5.89c-0.36,1.07-0.57,2.48-0.57,3.74v26.55h-10.91v-25.58
			c0-6.23-2.49-10.59-7.63-10.59c-4.19,0-7,3.29-8.05,6.32c-0.4,1.12-0.56,2.45-0.56,3.7v26.16h-10.91V1353.92z"/>
		<path class="st4" d="M821.36,1365.98c0.3,8.02,6.5,11.52,13.66,11.52c5.15,0,8.83-0.81,12.21-2.05l1.66,7.7
			c-3.79,1.61-9.04,2.81-15.46,2.81c-14.37,0-22.78-8.87-22.78-22.43c0-12.21,7.41-23.77,21.64-23.77
			c14.38,0,19.06,11.83,19.06,21.52c0,2.08-0.18,3.74-0.4,4.7H821.36z M829.93,1321.57l7.89,13.45h-7.75l-11.1-13.45H829.93z
			 M840.81,1358.19c0.05-4.1-1.73-10.78-9.23-10.78c-6.89,0-9.75,6.25-10.25,10.78H840.81z"/>
		<path class="st4" d="M873.18,1328.09v12.67h10.64v8.34h-10.64v19.52c0,5.42,1.44,8.17,5.72,8.17c1.91,0,3.35-0.22,4.35-0.49
			l0.23,8.51c-1.68,0.63-4.61,1.15-8.14,1.15c-4.11,0-7.54-1.4-9.62-3.65c-2.4-2.54-3.5-6.61-3.5-12.41v-20.81h-6.31v-8.34h6.31
			v-10.02L873.18,1328.09z"/>
		<path class="st4" d="M892.27,1354.99c0-5.93-0.12-10.28-0.36-14.22h9.69l0.41,8.41h0.32c2.18-6.23,7.34-9.41,12.11-9.41
			c1.09,0,1.73,0.04,2.63,0.24v10.54c-0.96-0.2-1.93-0.32-3.28-0.32c-5.33,0-9.03,3.39-10.03,8.46c-0.19,0.99-0.29,2.17-0.29,3.37
			v22.95h-11.2V1354.99z"/>
		<path class="st4" d="M931.69,1365.98c0.3,8.02,6.5,11.52,13.66,11.52c5.15,0,8.83-0.81,12.21-2.05l1.66,7.7
			c-3.79,1.61-9.04,2.81-15.46,2.81c-14.37,0-22.78-8.87-22.78-22.43c0-12.21,7.41-23.77,21.64-23.77
			c14.38,0,19.06,11.83,19.06,21.52c0,2.08-0.18,3.74-0.4,4.7H931.69z M951.15,1358.19c0.05-4.1-1.73-10.78-9.23-10.78
			c-6.89,0-9.75,6.25-10.25,10.78H951.15z"/>
		<path class="st4" d="M993.22,1356.97v7.7h-23.17v-7.7H993.22z"/>
		<path class="st4" d="M1002.36,1323.75h35.42v9.21h-24.23v16.9h22.53v9.13h-22.53v26.02h-11.2V1323.75z"/>
		<path class="st4" d="M1087.73,1362.45c0,16.27-11.41,23.56-22.73,23.56c-12.48,0-22.14-8.62-22.14-22.8
			c0-14.51,9.56-23.45,22.89-23.45C1078.92,1339.76,1087.73,1349.04,1087.73,1362.45z M1054.36,1362.93c0,8.51,4.25,14.95,11,14.95
			c6.42,0,10.87-6.19,10.87-15.1c0-6.95-3.08-14.89-10.8-14.89C1057.58,1347.89,1054.36,1355.56,1054.36,1362.93z"/>
		<path class="st4" d="M1096.95,1354.99c0-5.93-0.12-10.28-0.36-14.22h9.69l0.41,8.41h0.32c2.18-6.23,7.34-9.41,12.11-9.41
			c1.09,0,1.73,0.04,2.63,0.24v10.54c-0.96-0.2-1.93-0.32-3.28-0.32c-5.33,0-9.03,3.39-10.03,8.46c-0.19,0.99-0.29,2.17-0.29,3.37
			v22.95h-11.2V1354.99z"/>
		<path class="st4" d="M1129.4,1353.92c0-5.11-0.16-9.33-0.36-13.16h9.56l0.51,6.5h0.26c2.14-3.43,6.16-7.5,13.62-7.5
			c5.86,0,10.37,3.26,12.27,8.16h0.18c1.55-2.42,3.41-4.27,5.41-5.56c2.52-1.69,5.31-2.6,8.99-2.6c7.31,0,14.77,5.01,14.77,19.2
			v26.05h-10.91v-24.47c0-7.37-2.55-11.7-7.89-11.7c-3.83,0-6.63,2.7-7.78,5.89c-0.36,1.07-0.57,2.48-0.57,3.74v26.55h-10.91v-25.58
			c0-6.23-2.49-10.59-7.63-10.59c-4.19,0-7,3.29-8.05,6.32c-0.4,1.12-0.56,2.45-0.56,3.7v26.16h-10.91V1353.92z"/>
		<path class="st4" d="M1231.36,1385.01l-0.77-4.93h-0.27c-2.68,3.49-7.31,5.93-13.04,5.93c-8.98,0-13.95-6.41-13.95-13.16
			c0-11.16,9.95-16.82,26.24-16.75v-0.73c0-2.91-1.15-7.74-8.98-7.71c-4.33,0-8.88,1.4-11.9,3.3l-2.22-7.26
			c3.34-2.03,9.07-3.93,16.04-3.93c14.19,0,18.24,8.95,18.24,18.66v15.93c0,4.02,0.2,7.93,0.69,10.66H1231.36z M1229.88,1363.34
			c-7.89-0.1-15.45,1.56-15.45,8.3c0,4.33,2.84,6.37,6.38,6.37c4.47,0,7.68-2.88,8.76-6.12c0.24-0.78,0.31-1.66,0.31-2.43V1363.34z"
			/>
		<path class="st4" d="M1264.9,1328.09v12.67h10.64v8.34h-10.64v19.52c0,5.42,1.44,8.17,5.72,8.17c1.91,0,3.35-0.22,4.35-0.49
			l0.22,8.51c-1.68,0.63-4.61,1.15-8.14,1.15c-4.11,0-7.54-1.4-9.62-3.65c-2.4-2.54-3.5-6.61-3.5-12.41v-20.81h-6.31v-8.34h6.31
			v-10.02L1264.9,1328.09z"/>
		<path class="st4" d="M1295.85,1328.38c0.01,3.34-2.41,6.03-6.38,6.03c-3.71,0-6.14-2.69-6.13-6.03c-0.01-3.41,2.51-6.05,6.26-6.05
			C1293.41,1322.33,1295.81,1324.94,1295.85,1328.38z M1284,1385.01v-44.25h11.2v44.25H1284z"/>
		<path class="st4" d="M1349.3,1362.45c0,16.27-11.41,23.56-22.73,23.56c-12.48,0-22.14-8.62-22.14-22.8
			c0-14.51,9.56-23.45,22.89-23.45C1340.49,1339.76,1349.3,1349.04,1349.3,1362.45z M1315.93,1362.93c0,8.51,4.25,14.95,11,14.95
			c6.42,0,10.87-6.19,10.87-15.1c0-6.95-3.08-14.89-10.8-14.89C1319.15,1347.89,1315.93,1355.56,1315.93,1362.93z"/>
		<path class="st4" d="M1358.53,1353.92c0-5.11-0.16-9.33-0.36-13.16h9.78l0.55,6.64h0.26c1.96-3.43,6.75-7.64,14.1-7.64
			c7.71,0,15.73,4.97,15.73,18.96v26.28h-11.2v-24.96c0-6.35-2.33-11.19-8.44-11.19c-4.45,0-7.53,3.14-8.7,6.56
			c-0.34,0.92-0.51,2.28-0.51,3.55v26.04h-11.2V1353.92z"/>
	</g>
</g>
</svg>
